<svg width="435" height="555" viewBox="0 0 435 555" fill="none" xmlns="http://www.w3.org/2000/svg">
<path d="M434.751 250.412C434.748 274.746 426.116 298.291 410.39 316.861C394.663 335.43 372.86 347.82 348.859 351.829L348.351 351.912L347.958 351.584C341.414 346.127 334.191 341.542 326.468 337.943C330.807 341.921 334.631 346.427 337.849 351.357L338.944 353.002L336.971 353.097C335.268 353.18 333.576 353.222 331.942 353.222C322.343 353.23 312.788 351.905 303.553 349.285C261.6 337.349 216.55 335.308 169.653 343.218C161.612 344.57 153.472 345.249 145.318 345.249C65.3562 345.249 0.301903 280.181 0.301903 200.203C0.258706 169.71 9.84239 139.981 27.6869 115.254C45.5314 90.5269 70.7261 72.0638 99.6798 62.4962L100.677 62.166L101.071 63.1391C104.165 70.4484 106.088 78.1996 106.769 86.1075C108.692 77.7503 109.515 69.1779 109.218 60.6075L109.187 59.7027L110.067 59.4821C121.597 56.6085 133.435 55.1564 145.318 55.1582L146.605 55.1635C155.705 55.1906 164.709 53.2994 173.029 49.6134C181.349 45.9274 188.799 40.5293 194.893 33.771C204.885 22.7884 217.139 14.1008 230.809 8.30593C244.48 2.51106 259.244 -0.253531 274.085 0.202334C288.926 0.6582 303.493 4.32371 316.782 10.9467C330.071 17.5697 341.768 26.9929 351.068 38.5681L351.501 39.1041L351.215 39.7323C345.208 52.9715 338.664 62.6165 330.853 69.6698C340.877 64.9675 350.052 58.6367 358.006 50.9345L359.033 49.9387L359.753 51.1751C368.919 66.8942 373.745 84.7659 373.738 102.962L373.737 103.481C373.736 103.664 373.736 103.848 373.736 104.031C373.736 131.866 384.499 158.248 403.316 176.495C413.213 186.102 421.092 197.589 426.49 210.282C431.888 222.976 434.696 236.619 434.751 250.412Z" fill="#FFAE63"/>
<path d="M309.061 7.45239C305.517 13.3351 301.155 18.6853 296.108 23.343C303.335 19.9499 310.13 15.7031 316.347 10.6934C313.962 9.51862 311.533 8.43828 309.061 7.45239Z" fill="#C68C55"/>
<path d="M368.571 130.168C374.163 135.594 379.122 141.635 383.354 148.177C376.985 134.333 373.703 119.27 373.736 104.031C373.736 103.848 373.736 103.664 373.737 103.481L373.738 102.962C373.745 84.7659 368.919 66.8942 359.753 51.1751L359.033 49.9387L358.006 50.9344C352.338 56.4131 346.044 61.2055 339.255 65.2126C341.005 90.2426 351.455 113.571 368.571 130.168Z" fill="#C68C55"/>
<path d="M403.316 176.495C398.37 171.683 393.975 166.337 390.213 160.553C396.951 174.908 400.273 190.628 399.92 206.482C399.566 222.336 395.546 237.893 388.175 251.934C380.803 265.974 370.281 278.117 357.432 287.411C344.583 296.705 329.756 302.897 314.113 305.502L313.606 305.585L313.213 305.258C306.669 299.8 299.446 295.215 291.722 291.616C296.062 295.594 299.886 300.1 303.104 305.03L304.198 306.676L302.226 306.771C300.523 306.853 298.831 306.895 297.197 306.895C287.598 306.903 278.043 305.578 268.808 302.958C226.855 291.023 181.805 288.981 134.908 296.892C126.867 298.243 118.727 298.922 110.573 298.922C75.0305 298.949 40.7261 285.867 14.2266 262.18C25.9812 287.01 44.5384 307.995 67.743 322.699C90.9476 337.402 117.847 345.222 145.318 345.249C153.472 345.249 161.612 344.57 169.653 343.218C216.55 335.308 261.6 337.349 303.553 349.285C312.788 351.905 322.342 353.23 331.942 353.222C333.576 353.222 335.268 353.18 336.971 353.097L338.943 353.002L337.849 351.357C334.631 346.427 330.807 341.921 326.468 337.943C334.191 341.542 341.414 346.127 347.958 351.584L348.351 351.912L348.859 351.829C367.642 348.704 385.188 340.421 399.538 327.905C413.888 315.388 424.478 299.131 430.126 280.946C435.774 262.761 436.258 243.364 431.524 224.921C426.79 206.477 417.024 189.711 403.316 176.495Z" fill="#C68C55"/>
<path d="M281.477 122.327C283.745 123.004 286.181 123.174 288.549 122.82C290.917 122.466 293.138 121.6 294.998 120.305C299.734 116.931 301.219 111.373 302.427 106.226L306 91L298.519 95.373C293.138 98.5179 287.637 101.764 283.912 106.319C280.187 110.874 278.562 117.093 281.554 122.022" fill="#D68840"/>
<path d="M339 207.886C339.852 209.197 341.024 210.263 342.402 210.982C343.78 211.702 345.318 212.05 346.868 211.994C350.851 211.803 354.171 208.992 357.159 206.323L366 198.429L360.149 198.146C355.942 197.942 351.626 197.751 347.618 199.064C343.61 200.378 339.914 203.535 339.182 207.73" fill="#D68840"/>
<path d="M144.091 176.348C142.695 177.004 141.196 177.168 139.739 176.825C138.282 176.482 136.915 175.644 135.771 174.39C132.856 171.121 131.942 165.737 131.199 160.75L129 146L133.604 150.236C136.915 153.283 140.3 156.427 142.593 160.84C144.885 165.253 145.885 171.277 144.044 176.052" fill="#D68840"/>
<path d="M144.394 260.263C145.11 259.094 145.522 257.718 145.589 256.268C145.655 254.818 145.376 253.343 144.776 251.985C143.198 248.509 139.815 246.448 136.662 244.636L127.335 239.276L129.212 244.559C130.562 248.358 131.961 252.25 134.423 255.393C136.885 258.537 140.672 260.823 144.207 260.151" fill="#D68840"/>
<path d="M145.007 113.749C141.208 106.714 140.677 97.4932 145.342 91C147.65 99.3831 152.848 106.68 160.017 111.599C162.789 113.486 166.069 115.297 167.017 118.513C167.516 120.564 167.208 122.727 166.158 124.558C165.11 126.365 163.835 128.03 162.363 129.513L162.229 130.016C155.351 125.94 148.807 120.784 145.007 113.749Z" fill="#D68840"/>
<path d="M315.235 272.082L315.461 271.808C315.529 271.725 322.437 263.449 332.155 260.542C341.873 257.634 350.962 261.123 351.053 261.158L351.35 261.275L351.125 261.548C351.056 261.632 344.149 269.908 334.43 272.815C324.712 275.723 315.622 272.234 315.532 272.198L315.235 272.082ZM335.259 271.999C343.355 269.175 342.212 259.103 333.983 261.236C333.682 261.315 332.787 261.646 332.483 261.736C323.998 264.275 317.457 270.347 316.173 271.801C317.833 272.373 325.85 274.836 334.336 272.298C334.645 272.206 334.953 272.106 335.259 271.999Z" fill="#D68840"/>
<path d="M220.405 69.5552C221.75 82.6233 230.74 91.7177 230.74 91.7177C230.74 91.7177 237.546 79.6251 236.201 66.5571C234.856 53.489 225.866 44.3946 225.866 44.3946C225.866 44.3946 219.06 56.4872 220.405 69.5552Z" fill="#D68840"/>
<path d="M83 161L82.7456 160.979C82.6681 160.973 74.9383 160.251 69.8247 152.717C64.7111 145.182 64.0275 133.501 64.0209 133.384L64 133L64.2544 133.021C64.3319 133.027 72.0617 133.749 77.1749 141.283C82.2881 148.818 82.9725 160.499 82.9787 160.616L83 161ZM70.1349 152.235C74.5998 158.82 81.1261 160.079 82.5076 160.278C82.3398 158.192 81.3305 148.35 76.8651 141.766C76.7055 141.531 76.5433 141.302 76.3786 141.08C71.8942 135.036 65.5923 144.808 69.6595 151.495C69.8137 151.748 69.9721 151.995 70.1349 152.235Z" fill="#D68840"/>
<path d="M284.348 174.474C273.823 185.422 270.442 203.825 270.442 203.825C270.442 203.825 284.125 204.476 294.65 193.527C305.175 182.578 308.558 164.175 308.558 164.175C308.558 164.175 294.873 163.524 284.348 174.474Z" fill="#D68840"/>
<path d="M76.0452 220.179C77.5666 225.246 79.4065 230.636 82.9634 233.721C86.5203 236.805 87 238 92 238C87.8721 242.14 87.0744 242.164 82.0081 244.077C76.9419 245.989 70.819 245.059 67.3367 240.077C65.2115 237.037 64.3316 232.92 64.0594 228.897C63.7873 224.873 64.4515 222.288 66.0127 218.384C68.5663 213.009 73.8735 208.319 72.0347 205C76.2723 209.183 74.5238 215.113 76.0452 220.179Z" fill="#D68840"/>
<path d="M218.131 230.242C212.62 230.741 206.42 232.096 201.904 233.784C193.829 236.803 186.424 241.605 180.051 247.953C177.239 250.758 172.837 256.273 170.465 259.934C160.878 274.839 155.328 292.264 153.434 313.421C153.013 318.081 152.86 331.369 153.147 336.623C153.893 349.769 156.075 361.774 159.615 372.139C160.61 375.039 170.905 400.404 172.455 403.756C181.774 423.938 195.475 437.37 212.39 442.861C224.79 446.902 240.06 446.76 254.201 442.481C274.16 436.442 289.966 421.799 300.949 399.191C308.049 384.595 312.258 368.311 313.808 349.555C316.009 322.526 312.469 297.232 303.724 277.644C294.233 256.415 279.613 242.247 261.454 236.756C258.622 235.9 238.797 231.478 234.875 230.837C229.938 230.005 223.183 229.767 218.131 230.242ZM244.27 257.366C246.318 259.149 249.973 263.69 251.81 266.709C257.933 276.836 261.875 290.124 263.482 306.171C264.515 316.559 264.554 328.089 263.559 338.953C262.334 352.527 259.406 364.508 254.871 374.421C247.887 389.706 239.276 397.789 227.22 400.309C224.388 400.903 218.437 401.046 215.682 400.57C210.018 399.572 205.789 397.48 201.292 393.391C199.972 392.226 199.933 392.131 199.225 389.944C196.068 379.983 194.231 369.357 193.332 355.736C193.044 351.29 193.044 336.171 193.332 331.726C194.977 306.694 200.469 287.367 209.826 273.817C217.825 262.24 228.005 256.487 241.113 256.178L242.854 256.13L244.27 257.366Z" fill="#454B60"/>
<path d="M303.331 394.076C282.525 442.861 243.94 448.21 222.628 445.179C278.312 426.369 291.018 400.249 298.835 379.924C311.967 345.781 311.249 330.091 312.898 311.281C317.133 341.056 312.657 372.21 303.331 394.076Z" fill="#373C4F"/>
<path d="M195.814 421.043C193.984 428.705 191.672 430.529 189.483 430.006C187.294 429.483 186.056 426.812 187.886 419.15C189.716 411.487 196.11 402.258 196.11 402.258C196.11 402.258 197.644 413.38 195.814 421.043Z" fill="#7A8CED"/>
<path d="M203.823 366.462C202.707 371.138 201.296 372.251 199.961 371.932C198.625 371.613 197.869 369.983 198.986 365.307C200.102 360.631 204.004 355 204.004 355C204.004 355 204.94 361.787 203.823 366.462Z" fill="#7A8CED"/>
<path d="M160.168 273.121C159.051 277.797 157.641 278.909 156.305 278.59C154.969 278.271 154.214 276.641 155.33 271.966C156.447 267.29 160.348 261.659 160.348 261.659C160.348 261.659 161.284 268.446 160.168 273.121Z" fill="#7A8CED"/>
<path d="M90.3059 545.103C88.4761 552.766 86.1646 554.59 83.9754 554.067C81.7861 553.544 80.5481 550.873 82.3779 543.21C84.2078 535.548 90.6018 526.319 90.6018 526.319C90.6018 526.319 92.1358 537.441 90.3059 545.103Z" fill="#7A8CED"/>
<path d="M98.3156 490.523C97.199 495.198 95.7886 496.311 94.4527 495.992C93.1169 495.673 92.3614 494.043 93.478 489.368C94.5945 484.692 98.4961 479.061 98.4961 479.061C98.4961 479.061 99.4321 485.847 98.3156 490.523Z" fill="#7A8CED"/>
<path d="M63.4088 513.182C62.2923 517.857 60.8818 518.97 59.546 518.651C58.2101 518.332 57.4547 516.702 58.5712 512.026C59.6878 507.351 63.5894 501.719 63.5894 501.719C63.5894 501.719 64.5254 508.506 63.4088 513.182Z" fill="#7A8CED"/>
<path d="M54.1744 316.678C52.3445 324.341 50.033 326.165 47.8438 325.642C45.6545 325.119 44.4165 322.448 46.2463 314.785C48.0762 307.123 54.4702 297.894 54.4702 297.894C54.4702 297.894 56.0042 309.016 54.1744 316.678Z" fill="#7A8CED"/>
<path d="M49.2752 450.182C47.4453 457.844 45.1339 459.668 42.9446 459.145C40.7553 458.622 39.5173 455.951 41.3472 448.288C43.177 440.626 49.571 431.397 49.571 431.397C49.571 431.397 51.105 442.519 49.2752 450.182Z" fill="#7A8CED"/>
<path d="M57.2848 395.601C56.1683 400.277 54.7578 401.389 53.422 401.07C52.0861 400.751 51.3307 399.121 52.4472 394.446C53.5637 389.77 57.4653 384.139 57.4653 384.139C57.4653 384.139 58.4014 390.925 57.2848 395.601Z" fill="#7A8CED"/>
<path d="M22.3781 418.26C21.2615 422.935 19.8511 424.048 18.5152 423.729C17.1793 423.41 16.4239 421.78 17.5405 417.104C18.657 412.429 22.5586 406.797 22.5586 406.797C22.5586 406.797 23.4946 413.584 22.3781 418.26Z" fill="#7A8CED"/>
<path d="M147.871 322.19C146.042 329.852 143.73 331.676 141.541 331.153C139.352 330.631 138.114 327.959 139.943 320.297C141.773 312.634 148.167 303.405 148.167 303.405C148.167 303.405 149.701 314.528 147.871 322.19Z" fill="#7A8CED"/>
<path d="M142.972 455.693C141.142 463.356 138.831 465.179 136.642 464.657C134.452 464.134 133.214 461.462 135.044 453.8C136.874 446.138 143.268 436.909 143.268 436.909C143.268 436.909 144.802 448.031 142.972 455.693Z" fill="#7A8CED"/>
<path d="M150.982 401.113C149.865 405.788 148.455 406.901 147.119 406.582C145.783 406.263 145.028 404.633 146.144 399.957C147.261 395.282 151.162 389.65 151.162 389.65C151.162 389.65 152.098 396.437 150.982 401.113Z" fill="#7A8CED"/>
<path d="M405.813 325.785C403.984 333.447 401.672 335.271 399.483 334.748C397.294 334.225 396.056 331.554 397.885 323.891C399.715 316.229 406.109 307 406.109 307C406.109 307 407.643 318.122 405.813 325.785Z" fill="#7A8CED"/>
<path d="M216.684 431.989C215.567 436.665 214.157 437.777 212.821 437.458C211.485 437.139 210.73 435.509 211.846 430.834C212.963 426.158 216.864 420.527 216.864 420.527C216.864 420.527 217.8 427.314 216.684 431.989Z" fill="#7A8CED"/>
<path d="M278.313 311.779C276.483 319.442 274.171 321.265 271.982 320.743C269.793 320.22 268.555 317.548 270.385 309.886C272.214 302.224 278.608 292.995 278.608 292.995C278.608 292.995 280.142 304.117 278.313 311.779Z" fill="#7A8CED"/>
<path d="M273.413 445.282C271.583 452.945 269.272 454.768 267.083 454.246C264.893 453.723 263.655 451.051 265.485 443.389C267.315 435.727 273.709 426.498 273.709 426.498C273.709 426.498 275.243 437.62 273.413 445.282Z" fill="#7A8CED"/>
<path d="M281.423 390.702C280.306 395.377 278.896 396.49 277.56 396.171C276.224 395.852 275.469 394.222 276.585 389.546C277.702 384.871 281.604 379.239 281.604 379.239C281.604 379.239 282.54 386.026 281.423 390.702Z" fill="#7A8CED"/>
<path d="M365.273 337.5C363.443 345.162 361.132 346.986 358.942 346.463C356.753 345.941 355.515 343.269 357.345 335.607C359.175 327.944 365.569 318.715 365.569 318.715C365.569 318.715 367.103 329.838 365.273 337.5Z" fill="#7A8CED"/>
<path d="M338.376 305.578C337.259 310.254 335.849 311.367 334.513 311.048C333.177 310.729 332.422 309.098 333.538 304.423C334.655 299.747 338.556 294.116 338.556 294.116C338.556 294.116 339.492 300.903 338.376 305.578Z" fill="#7A8CED"/>
<path d="M329.141 399.352C327.312 407.015 325 408.839 322.811 408.316C320.622 407.793 319.384 405.122 321.213 397.459C323.043 389.797 329.437 380.568 329.437 380.568C329.437 380.568 330.971 391.69 329.141 399.352Z" fill="#7A8CED"/>
<path d="M324.242 532.855C322.413 540.518 320.101 542.342 317.912 541.819C315.723 541.296 314.485 538.624 316.314 530.962C318.144 523.3 324.538 514.071 324.538 514.071C324.538 514.071 326.072 525.193 324.242 532.855Z" fill="#7A8CED"/>
<path d="M332.252 478.275C331.136 482.95 329.725 484.063 328.389 483.744C327.053 483.425 326.298 481.795 327.414 477.12C328.531 472.444 332.433 466.812 332.433 466.812C332.433 466.812 333.369 473.599 332.252 478.275Z" fill="#7A8CED"/>
<path d="M416.102 425.073C414.272 432.736 411.961 434.559 409.772 434.037C407.582 433.514 406.344 430.842 408.174 423.18C410.004 415.518 416.398 406.289 416.398 406.289C416.398 406.289 417.932 417.411 416.102 425.073Z" fill="#7A8CED"/>
<path d="M389.205 393.151C388.089 397.827 386.678 398.94 385.343 398.621C384.007 398.302 383.251 396.672 384.368 391.996C385.484 387.321 389.386 381.689 389.386 381.689C389.386 381.689 390.322 388.476 389.205 393.151Z" fill="#7A8CED"/>
</svg>
